<svg width="21" height="21" viewBox="0 0 21 21" fill="none" xmlns="http://www.w3.org/2000/svg">
<g clip-path="url(#clip0)">
<path d="M5.59998 6.30001H15.4H5.59998ZM5.59998 11.9H6.99998H5.59998ZM9.79998 11.9H11.2H9.79998ZM14 11.9H15.4H14ZM5.59998 16.1H6.99998H5.59998ZM9.79998 16.1H11.2H9.79998ZM14 16.1H15.4H14ZM3.49998 20.3H17.5C17.8713 20.3 18.2274 20.1525 18.4899 19.89C18.7525 19.6274 18.9 19.2713 18.9 18.9V2.10001C18.9 1.72871 18.7525 1.37261 18.4899 1.11006C18.2274 0.847512 17.8713 0.700012 17.5 0.700012H3.49998C3.12867 0.700012 2.77258 0.847512 2.51003 1.11006C2.24748 1.37261 2.09998 1.72871 2.09998 2.10001V18.9C2.09998 19.2713 2.24748 19.6274 2.51003 19.89C2.77258 20.1525 3.12867 20.3 3.49998 20.3Z" stroke="#526AE5" stroke-width="2"/>
</g>
<defs>
<clipPath id="clip0" >
<rect width="21" height="21" fill="#526AE5"/>
</clipPath>
</defs>
</svg>
