<svg width="22" height="23" viewBox="0 0 22 23" fill="none" xmlns="http://www.w3.org/2000/svg">
<path d="M16.4212 6.09916C16.0131 5.71015 15.351 5.71009 14.9427 6.09909C14.5345 6.48817 14.5344 7.11893 14.9427 7.508L18.0369 10.4567H5.22746C4.65009 10.4567 4.18201 10.9027 4.18201 11.4529C4.18201 12.0031 4.65009 12.4492 5.22746 12.4492H18.0367L14.9427 15.3976C14.5344 15.7866 14.5344 16.4174 14.9427 16.8065C15.1469 17.001 15.4144 17.0982 15.682 17.0982C15.9496 17.0982 16.2171 17.001 16.4212 16.8065L21.2999 12.1574C21.7082 11.7684 21.7082 11.1376 21.2999 10.7485L16.4212 6.09916Z" fill="#959CB6"/>
<path d="M10.106 22.4118C10.6834 22.4118 11.1515 21.9657 11.1515 21.4155C11.1515 20.8653 10.6834 20.4193 10.106 20.4193H2.0909V2.48665H10.106C10.6834 2.48665 11.1515 2.0406 11.1515 1.4904C11.1515 0.940198 10.6834 0.494141 10.106 0.494141H1.04545C0.468084 0.494141 0 0.940198 0 1.4904V21.4155C0 21.9657 0.468084 22.4118 1.04545 22.4118H10.106Z" fill="#959CB6"/>
</svg>
