<svg width="20" height="20" viewBox="0 0 20 20" fill="none" xmlns="http://www.w3.org/2000/svg">
<path d="M19.9816 0H0V19.9547H19.9816V0Z" fill="#F5F5F5"/>
<path d="M18.5 0H1.5C0.671573 0 0 0.671573 0 1.5V1.53465H20V1.5C20 0.671573 19.3284 0 18.5 0Z" fill="#FF4B55"/>
<path d="M20 6.13843H0V7.67308H20V6.13843Z" fill="#FF4B55"/>
<path d="M20 3.06848H0V4.60313H20V3.06848Z" fill="#FF4B55"/>
<path d="M20 9.20801H0V10.7427H20V9.20801Z" fill="#FF4B55"/>
<path d="M20 15.3478H0V16.8824H20V15.3478Z" fill="#FF4B55"/>
<path d="M20 18.4178H0V18.4525C0 19.2809 0.671573 19.9525 1.5 19.9525H18.5C19.3284 19.9525 20 19.2809 20 18.4525V18.4178Z" fill="#FF4B55"/>
<path d="M20 12.2782H0V13.8128H20V12.2782Z" fill="#FF4B55"/>
<path d="M10.7594 0H1C0.447715 0 0 0.447715 0 1V10.7449H10.7594V0Z" fill="#41479B"/>
<path d="M1.37486 0.801086L1.45775 1.04934L1.71978 1.05137C1.75369 1.05165 1.76779 1.09487 1.74049 1.115L1.5297 1.27045L1.60873 1.51996C1.61896 1.55226 1.58217 1.57898 1.55451 1.55928L1.34131 1.4071L1.1281 1.55928C1.10053 1.57902 1.06369 1.55226 1.07388 1.51996L1.15291 1.27045L0.942127 1.115C0.914861 1.09487 0.928885 1.05165 0.96283 1.05137L1.22486 1.04934L1.30775 0.801086C1.31861 0.768942 1.36416 0.768942 1.37486 0.801086Z" fill="#F5F5F5"/>
<path d="M1.37486 2.87204L1.45775 3.1203L1.71978 3.12232C1.75369 3.1226 1.76779 3.16582 1.74049 3.18595L1.5297 3.3414L1.60873 3.59091C1.61896 3.62321 1.58217 3.64993 1.55451 3.63023L1.34131 3.47806L1.1281 3.63023C1.10053 3.64997 1.06369 3.62321 1.07388 3.59091L1.15291 3.3414L0.942127 3.18595C0.914861 3.16582 0.928885 3.1226 0.96283 3.12232L1.22486 3.1203L1.30775 2.87204C1.31861 2.83985 1.36416 2.83985 1.37486 2.87204Z" fill="#F5F5F5"/>
<path d="M1.37486 5.16876L1.45775 5.41702L1.71978 5.41905C1.75369 5.41932 1.76779 5.46255 1.74049 5.48271L1.5297 5.63817L1.60873 5.88767C1.61896 5.91998 1.58217 5.9467 1.55451 5.927L1.34131 5.77482L1.1281 5.927C1.10053 5.94674 1.06369 5.91998 1.07388 5.88767L1.15291 5.63817L0.942127 5.48271C0.914861 5.46258 0.928885 5.41932 0.96283 5.41905L1.22486 5.41702L1.30775 5.16876C1.31861 5.13662 1.36416 5.13662 1.37486 5.16876Z" fill="#F5F5F5"/>
<path d="M1.37486 7.27911L1.45775 7.52737L1.71978 7.5294C1.75369 7.52967 1.76779 7.5729 1.74049 7.59303L1.5297 7.74848L1.60873 7.99799C1.61896 8.03029 1.58217 8.05701 1.55451 8.03731L1.34131 7.88513L1.1281 8.03731C1.10053 8.05705 1.06369 8.03029 1.07388 7.99799L1.15291 7.74848L0.942127 7.59303C0.914861 7.5729 0.928885 7.52967 0.96283 7.5294L1.22486 7.52737L1.30775 7.27911C1.31861 7.24697 1.36416 7.24697 1.37486 7.27911Z" fill="#F5F5F5"/>
<path d="M1.37486 9.19952L1.45775 9.44778L1.71978 9.44981C1.75369 9.45008 1.76779 9.49331 1.74049 9.51344L1.5297 9.66889L1.60873 9.9184C1.61896 9.9507 1.58217 9.97742 1.55451 9.95772L1.34131 9.80554L1.1281 9.95772C1.10053 9.97746 1.06369 9.9507 1.07388 9.9184L1.15291 9.66889L0.942127 9.51344C0.914861 9.49331 0.928885 9.45004 0.96283 9.44981L1.22486 9.44778L1.30775 9.19952C1.31861 9.16738 1.36416 9.16738 1.37486 9.19952Z" fill="#F5F5F5"/>
<path d="M2.38463 1.78168L2.46752 2.02994L2.72955 2.03196C2.76346 2.03224 2.77756 2.07546 2.75025 2.09559L2.53947 2.25104L2.61849 2.50055C2.62873 2.53285 2.59193 2.55957 2.56428 2.53987L2.35107 2.38769L2.13787 2.53987C2.11029 2.55961 2.07346 2.53285 2.08365 2.50055L2.16267 2.25104L1.95189 2.09559C1.92463 2.07546 1.93865 2.03224 1.9726 2.03196L2.23463 2.02994L2.31752 1.78168C2.32838 1.74953 2.37392 1.74953 2.38463 1.78168Z" fill="#F5F5F5"/>
<path d="M2.38463 4.07867L2.46752 4.32693L2.72955 4.32896C2.76346 4.32923 2.77756 4.37246 2.75025 4.39258L2.53947 4.54804L2.61849 4.79755C2.62873 4.82985 2.59193 4.85657 2.56428 4.83687L2.35107 4.68469L2.13787 4.83687C2.11029 4.85661 2.07346 4.82985 2.08365 4.79755L2.16267 4.54804L1.95189 4.39258C1.92463 4.37246 1.93865 4.32923 1.9726 4.32896L2.23463 4.32693L2.31752 4.07867C2.32838 4.04653 2.37392 4.04653 2.38463 4.07867Z" fill="#F5F5F5"/>
<path d="M2.38463 6.26077L2.46752 6.50903L2.72955 6.51106C2.76346 6.51133 2.77756 6.55456 2.75025 6.57469L2.53947 6.73014L2.61849 6.97965C2.62873 7.01195 2.59193 7.03867 2.56428 7.01897L2.35107 6.86679L2.13787 7.01897C2.11029 7.03871 2.07346 7.01195 2.08365 6.97965L2.16267 6.73014L1.95189 6.57469C1.92463 6.55456 1.93865 6.51133 1.9726 6.51106L2.23463 6.50903L2.31752 6.26077C2.32838 6.22867 2.37392 6.22867 2.38463 6.26077Z" fill="#F5F5F5"/>
<path d="M2.38463 8.22055L2.46752 8.46881L2.72955 8.47084C2.76346 8.47111 2.77756 8.51433 2.75025 8.53446L2.53947 8.68992L2.61849 8.93942C2.62873 8.97172 2.59193 8.99845 2.56428 8.97874L2.35107 8.82657L2.13787 8.97874C2.11029 8.99848 2.07346 8.97172 2.08365 8.93942L2.16267 8.68992L1.95189 8.53446C1.92463 8.51433 1.93865 8.47111 1.9726 8.47084L2.23463 8.46881L2.31752 8.22055C2.32838 8.18837 2.37392 8.18837 2.38463 8.22055Z" fill="#F5F5F5"/>
<path d="M3.39647 0.801086L3.47936 1.04934L3.74139 1.05137C3.7753 1.05165 3.7894 1.09487 3.76209 1.115L3.55131 1.27045L3.63034 1.51996C3.64057 1.55226 3.60377 1.57898 3.57612 1.55928L3.36291 1.4071L3.14971 1.55928C3.12213 1.57902 3.0853 1.55226 3.09549 1.51996L3.17452 1.27045L2.96373 1.115C2.93647 1.09487 2.95049 1.05165 2.98444 1.05137L3.24647 1.04934L3.32936 0.801086C3.34022 0.768942 3.38573 0.768942 3.39647 0.801086Z" fill="#F5F5F5"/>
<path d="M3.39635 2.87204L3.47924 3.1203L3.74127 3.12232C3.77517 3.1226 3.78928 3.16582 3.76197 3.18595L3.55119 3.3414L3.63021 3.59091C3.64045 3.62321 3.60365 3.64993 3.57599 3.63023L3.36279 3.47806L3.14959 3.63023C3.12201 3.64997 3.08517 3.62321 3.09537 3.59091L3.17439 3.3414L2.96361 3.18595C2.93635 3.16582 2.95037 3.1226 2.98431 3.12232L3.24635 3.1203L3.32924 2.87204C3.3401 2.83985 3.3856 2.83985 3.39635 2.87204Z" fill="#F5F5F5"/>
<path d="M3.39635 5.16876L3.47924 5.41702L3.74127 5.41905C3.77517 5.41932 3.78928 5.46255 3.76197 5.48271L3.55119 5.63817L3.63021 5.88767C3.64045 5.91998 3.60365 5.9467 3.57599 5.927L3.36279 5.77482L3.14959 5.927C3.12201 5.94674 3.08517 5.91998 3.09537 5.88767L3.17439 5.63817L2.96361 5.48271C2.93635 5.46258 2.95037 5.41932 2.98431 5.41905L3.24635 5.41702L3.32924 5.16876C3.3401 5.13662 3.3856 5.13662 3.39635 5.16876Z" fill="#F5F5F5"/>
<path d="M3.39627 7.27912L3.47916 7.52738L3.74119 7.5294C3.7751 7.52968 3.7892 7.5729 3.76189 7.59303L3.55111 7.74848L3.63014 7.99799C3.64037 8.03029 3.60357 8.05701 3.57592 8.03731L3.36279 7.8851L3.14959 8.03727C3.12201 8.05701 3.08517 8.03025 3.09537 7.99795L3.17439 7.74844L2.96361 7.59299C2.93635 7.57286 2.95037 7.52964 2.98431 7.52937L3.24635 7.52734L3.32924 7.27908C3.34002 7.24697 3.38553 7.24697 3.39627 7.27912Z" fill="#F5F5F5"/>
<path d="M3.39635 9.19952L3.47924 9.44778L3.74127 9.44981C3.77517 9.45008 3.78928 9.49331 3.76197 9.51344L3.55119 9.66889L3.63021 9.9184C3.64045 9.9507 3.60365 9.97742 3.57599 9.95772L3.36279 9.80554L3.14959 9.95772C3.12201 9.97746 3.08517 9.9507 3.09537 9.9184L3.17439 9.66889L2.96361 9.51344C2.93635 9.49331 2.95037 9.45004 2.98431 9.44981L3.24635 9.44778L3.32924 9.19952C3.3401 9.16738 3.3856 9.16738 3.39635 9.19952Z" fill="#F5F5F5"/>
<path d="M4.40221 1.78168L4.4851 2.02994L4.74713 2.03196C4.78103 2.03224 4.79513 2.07546 4.76783 2.09559L4.55705 2.25104L4.63607 2.50055C4.64631 2.53285 4.60951 2.55957 4.58185 2.53987L4.36865 2.38769L4.15545 2.53987C4.12787 2.55961 4.09103 2.53285 4.10123 2.50055L4.18025 2.25104L3.96947 2.09559C3.94221 2.07546 3.95623 2.03224 3.99017 2.03196L4.25232 2.02994L4.33521 1.78168C4.34596 1.74953 4.39146 1.74953 4.40221 1.78168Z" fill="#F5F5F5"/>
<path d="M4.40221 4.07867L4.4851 4.32693L4.74713 4.32896C4.78103 4.32923 4.79513 4.37246 4.76783 4.39258L4.55705 4.54804L4.63607 4.79755C4.64631 4.82985 4.60951 4.85657 4.58185 4.83687L4.36865 4.68469L4.15545 4.83687C4.12787 4.85661 4.09103 4.82985 4.10123 4.79755L4.18025 4.54804L3.96947 4.39258C3.94221 4.37246 3.95623 4.32923 3.99017 4.32896L4.25221 4.32693L4.3351 4.07867C4.34596 4.04653 4.39146 4.04653 4.40221 4.07867Z" fill="#F5F5F5"/>
<path d="M4.40221 6.26077L4.4851 6.50903L4.74713 6.51106C4.78103 6.51133 4.79513 6.55456 4.76783 6.57469L4.55705 6.73014L4.63607 6.97965C4.64631 7.01195 4.60951 7.03867 4.58185 7.01897L4.36865 6.86679L4.15545 7.01897C4.12787 7.03871 4.09103 7.01195 4.10123 6.97965L4.18025 6.73014L3.96947 6.57469C3.94221 6.55456 3.95623 6.51133 3.99017 6.51106L4.25221 6.50903L4.3351 6.26077C4.34596 6.22867 4.39146 6.22867 4.40221 6.26077Z" fill="#F5F5F5"/>
<path d="M4.40221 8.22055L4.4851 8.46881L4.74713 8.47084C4.78103 8.47111 4.79513 8.51433 4.76783 8.53446L4.55705 8.68992L4.63607 8.93942C4.64631 8.97172 4.60951 8.99845 4.58185 8.97874L4.36865 8.82657L4.15545 8.97874C4.12787 8.99848 4.09103 8.97172 4.10123 8.93942L4.18025 8.68992L3.96947 8.53446C3.94221 8.51433 3.95623 8.47111 3.99017 8.47084L4.25221 8.46881L4.3351 8.22055C4.34596 8.18837 4.39146 8.18837 4.40221 8.22055Z" fill="#F5F5F5"/>
<path d="M5.41356 0.801086L5.49645 1.04934L5.75848 1.05137C5.79239 1.05165 5.80649 1.09487 5.77918 1.115L5.5684 1.27045L5.64743 1.51996C5.65766 1.55226 5.62086 1.57898 5.59321 1.55928L5.38 1.4071L5.1668 1.55928C5.13922 1.57902 5.10239 1.55226 5.11258 1.51996L5.1916 1.27045L4.98082 1.115C4.95356 1.09487 4.96758 1.05165 5.00153 1.05137L5.26356 1.04934L5.34645 0.801086C5.35731 0.768942 5.40282 0.768942 5.41356 0.801086Z" fill="#F5F5F5"/>
<path d="M5.41392 2.87204L5.49682 3.1203L5.75885 3.12232C5.79275 3.1226 5.80686 3.16582 5.77955 3.18595L5.56877 3.3414L5.64779 3.59091C5.65803 3.62321 5.62123 3.64993 5.59357 3.63023L5.38037 3.47806L5.16717 3.63023C5.13959 3.64997 5.10275 3.62321 5.11295 3.59091L5.19197 3.3414L4.98119 3.18595C4.95392 3.16582 4.96795 3.1226 5.00189 3.12232L5.26392 3.1203L5.34682 2.87204C5.35767 2.83985 5.40318 2.83985 5.41392 2.87204Z" fill="#F5F5F5"/>
<path d="M5.41392 5.16876L5.49682 5.41702L5.75885 5.41905C5.79275 5.41932 5.80686 5.46255 5.77955 5.48271L5.56877 5.63817L5.64779 5.88767C5.65803 5.91998 5.62123 5.9467 5.59357 5.927L5.38037 5.77482L5.16717 5.927C5.13959 5.94674 5.10275 5.91998 5.11295 5.88767L5.19197 5.63817L4.98119 5.48271C4.95392 5.46258 4.96795 5.41932 5.00189 5.41905L5.26392 5.41702L5.34682 5.16876C5.35767 5.13662 5.40318 5.13662 5.41392 5.16876Z" fill="#F5F5F5"/>
<path d="M5.41392 7.27911L5.49682 7.52737L5.75885 7.5294C5.79275 7.52967 5.80686 7.5729 5.77955 7.59303L5.56877 7.74848L5.64779 7.99799C5.65803 8.03029 5.62123 8.05701 5.59357 8.03731L5.38037 7.88513L5.16717 8.03731C5.13959 8.05705 5.10275 8.03029 5.11295 7.99799L5.19197 7.74848L4.98119 7.59303C4.95392 7.5729 4.96795 7.52967 5.00189 7.5294L5.26392 7.52737L5.34682 7.27911C5.35767 7.24697 5.40318 7.24697 5.41392 7.27911Z" fill="#F5F5F5"/>
<path d="M5.41392 9.19952L5.49682 9.44778L5.75885 9.44981C5.79275 9.45008 5.80686 9.49331 5.77955 9.51344L5.56877 9.66889L5.64779 9.9184C5.65803 9.9507 5.62123 9.97742 5.59357 9.95772L5.38037 9.80554L5.16717 9.95772C5.13959 9.97746 5.10275 9.9507 5.11295 9.9184L5.19197 9.66889L4.98119 9.51344C4.95392 9.49331 4.96795 9.45004 5.00189 9.44981L5.26392 9.44778L5.34682 9.19952C5.35767 9.16738 5.40318 9.16738 5.41392 9.19952Z" fill="#F5F5F5"/>
<path d="M6.42174 1.78168L6.50463 2.02994L6.76666 2.03196C6.80056 2.03224 6.81467 2.07546 6.78736 2.09559L6.57658 2.25104L6.6556 2.50055C6.66584 2.53285 6.62904 2.55957 6.60139 2.53987L6.38818 2.38769L6.17498 2.53987C6.1474 2.55961 6.11057 2.53285 6.12076 2.50055L6.19978 2.25104L5.989 2.09559C5.96174 2.07546 5.97576 2.03224 6.00967 2.03196L6.2717 2.02994L6.35459 1.78168C6.36549 1.74953 6.41099 1.74953 6.42174 1.78168Z" fill="#F5F5F5"/>
<path d="M6.42174 4.07867L6.50463 4.32693L6.76666 4.32896C6.80056 4.32923 6.81467 4.37246 6.78736 4.39258L6.57658 4.54804L6.6556 4.79755C6.66584 4.82985 6.62904 4.85657 6.60139 4.83687L6.38818 4.68469L6.17498 4.83687C6.1474 4.85661 6.11057 4.82985 6.12076 4.79755L6.19978 4.54804L5.989 4.39258C5.96174 4.37246 5.97576 4.32923 6.00967 4.32896L6.2717 4.32693L6.35459 4.07867C6.36549 4.04653 6.41099 4.04653 6.42174 4.07867Z" fill="#F5F5F5"/>
<path d="M6.42174 6.26077L6.50463 6.50903L6.76666 6.51106C6.80056 6.51133 6.81467 6.55456 6.78736 6.57469L6.57658 6.73014L6.6556 6.97965C6.66584 7.01195 6.62904 7.03867 6.60139 7.01897L6.38818 6.86679L6.17498 7.01897C6.1474 7.03871 6.11057 7.01195 6.12076 6.97965L6.19978 6.73014L5.989 6.57469C5.96174 6.55456 5.97576 6.51133 6.00967 6.51106L6.2717 6.50903L6.35459 6.26077C6.36549 6.22867 6.41099 6.22867 6.42174 6.26077Z" fill="#F5F5F5"/>
<path d="M6.42174 8.22055L6.50463 8.46881L6.76666 8.47084C6.80056 8.47111 6.81467 8.51433 6.78736 8.53446L6.57658 8.68992L6.6556 8.93942C6.66584 8.97172 6.62904 8.99845 6.60139 8.97874L6.38818 8.82657L6.17498 8.97874C6.1474 8.99848 6.11057 8.97172 6.12076 8.93942L6.19978 8.68992L5.989 8.53446C5.96174 8.51433 5.97576 8.47111 6.00967 8.47084L6.2717 8.46881L6.35459 8.22055C6.36549 8.18837 6.41099 8.18837 6.42174 8.22055Z" fill="#F5F5F5"/>
<path d="M7.4326 0.801086L7.51549 1.04934L7.77752 1.05137C7.81143 1.05165 7.82553 1.09487 7.79823 1.115L7.58744 1.27045L7.66647 1.51996C7.6767 1.55226 7.6399 1.57898 7.61225 1.55928L7.39905 1.4071L7.18584 1.55928C7.15826 1.57902 7.12143 1.55226 7.13162 1.51996L7.21065 1.27045L6.99987 1.115C6.9726 1.09487 6.98662 1.05165 7.02057 1.05137L7.2826 1.04934L7.36549 0.801086C7.37635 0.768942 7.42186 0.768942 7.4326 0.801086Z" fill="#F5F5F5"/>
<path d="M7.43345 2.87204L7.51635 3.1203L7.77838 3.12232C7.81228 3.1226 7.82638 3.16582 7.79908 3.18595L7.5883 3.3414L7.66732 3.59091C7.67756 3.62321 7.64076 3.64993 7.6131 3.63023L7.3999 3.47806L7.1867 3.63023C7.15912 3.64997 7.12228 3.62321 7.13248 3.59091L7.2115 3.3414L7.00072 3.18595C6.97346 3.16582 6.98748 3.1226 7.02142 3.12232L7.28346 3.1203L7.36635 2.87204C7.3772 2.83985 7.42271 2.83985 7.43345 2.87204Z" fill="#F5F5F5"/>
<path d="M7.43345 5.16876L7.51635 5.41702L7.77838 5.41905C7.81228 5.41932 7.82638 5.46255 7.79908 5.48271L7.5883 5.63817L7.66732 5.88767C7.67756 5.91998 7.64076 5.9467 7.6131 5.927L7.3999 5.77482L7.1867 5.927C7.15912 5.94674 7.12228 5.91998 7.13248 5.88767L7.2115 5.63817L7.00072 5.48271C6.97346 5.46258 6.98748 5.41932 7.02142 5.41905L7.28346 5.41702L7.36635 5.16876C7.3772 5.13662 7.42271 5.13662 7.43345 5.16876Z" fill="#F5F5F5"/>
<path d="M7.43345 7.27911L7.51635 7.52737L7.77838 7.5294C7.81228 7.52967 7.82638 7.5729 7.79908 7.59303L7.5883 7.74848L7.66732 7.99799C7.67756 8.03029 7.64076 8.05701 7.6131 8.03731L7.3999 7.88513L7.1867 8.03731C7.15912 8.05705 7.12228 8.03029 7.13248 7.99799L7.2115 7.74848L7.00072 7.59303C6.97346 7.5729 6.98748 7.52967 7.02142 7.5294L7.28346 7.52737L7.36635 7.27911C7.3772 7.24697 7.42271 7.24697 7.43345 7.27911Z" fill="#F5F5F5"/>
<path d="M7.43345 9.19952L7.51635 9.44778L7.77838 9.44981C7.81228 9.45008 7.82638 9.49331 7.79908 9.51344L7.5883 9.66889L7.66732 9.9184C7.67756 9.9507 7.64076 9.97742 7.6131 9.95772L7.3999 9.80554L7.1867 9.95772C7.15912 9.97746 7.12228 9.9507 7.13248 9.9184L7.2115 9.66889L7.00072 9.51344C6.97346 9.49331 6.98748 9.45004 7.02142 9.44981L7.28346 9.44778L7.36635 9.19952C7.3772 9.16738 7.42271 9.16738 7.43345 9.19952Z" fill="#F5F5F5"/>
<path d="M8.44127 1.78168L8.52416 2.02994L8.78619 2.03196C8.8201 2.03224 8.8342 2.07546 8.80689 2.09559L8.59611 2.25104L8.67514 2.50055C8.68537 2.53285 8.64857 2.55957 8.62092 2.53987L8.40771 2.38769L8.19451 2.53987C8.16693 2.55961 8.1301 2.53285 8.14029 2.50055L8.21931 2.25104L8.00853 2.09559C7.98127 2.07546 7.99529 2.03224 8.02924 2.03196L8.29127 2.02994L8.37416 1.78168C8.38498 1.74953 8.43053 1.74953 8.44127 1.78168Z" fill="#F5F5F5"/>
<path d="M8.44127 4.07867L8.52416 4.32693L8.78619 4.32896C8.8201 4.32923 8.8342 4.37246 8.80689 4.39258L8.59611 4.54804L8.67514 4.79755C8.68537 4.82985 8.64857 4.85657 8.62092 4.83687L8.40771 4.68469L8.19451 4.83687C8.16693 4.85661 8.1301 4.82985 8.14029 4.79755L8.21931 4.54804L8.00853 4.39258C7.98127 4.37246 7.99529 4.32923 8.02924 4.32896L8.29127 4.32693L8.37416 4.07867C8.38498 4.04653 8.43053 4.04653 8.44127 4.07867Z" fill="#F5F5F5"/>
<path d="M8.44127 6.26077L8.52416 6.50903L8.78619 6.51106C8.8201 6.51133 8.8342 6.55456 8.80689 6.57469L8.59611 6.73014L8.67514 6.97965C8.68537 7.01195 8.64857 7.03867 8.62092 7.01897L8.40771 6.86679L8.19451 7.01897C8.16693 7.03871 8.1301 7.01195 8.14029 6.97965L8.21931 6.73014L8.00853 6.57469C7.98127 6.55456 7.99529 6.51133 8.02924 6.51106L8.29127 6.50903L8.37416 6.26077C8.38498 6.22867 8.43053 6.22867 8.44127 6.26077Z" fill="#F5F5F5"/>
<path d="M8.44127 8.22055L8.52416 8.46881L8.78619 8.47084C8.8201 8.47111 8.8342 8.51433 8.80689 8.53446L8.59611 8.68992L8.67514 8.93942C8.68537 8.97172 8.64857 8.99845 8.62092 8.97874L8.40771 8.82657L8.19451 8.97874C8.16693 8.99848 8.1301 8.97172 8.14029 8.93942L8.21931 8.68992L8.00853 8.53446C7.98127 8.51433 7.99529 8.47111 8.02924 8.47084L8.29127 8.46881L8.37416 8.22055C8.38498 8.18837 8.43053 8.18837 8.44127 8.22055Z" fill="#F5F5F5"/>
<path d="M9.44969 0.801086L9.53258 1.04934L9.79461 1.05137C9.82852 1.05165 9.84262 1.09487 9.81532 1.115L9.60454 1.27045L9.68356 1.51996C9.69379 1.55226 9.657 1.57898 9.62934 1.55928L9.41614 1.4071L9.20293 1.55928C9.17535 1.57902 9.13852 1.55226 9.14871 1.51996L9.22774 1.27045L9.01696 1.115C8.98969 1.09487 9.00371 1.05165 9.03766 1.05137L9.29969 1.04934L9.38258 0.801086C9.3934 0.768942 9.43895 0.768942 9.44969 0.801086Z" fill="#F5F5F5"/>
<path d="M9.44908 2.87204L9.53197 3.1203L9.794 3.12232C9.82791 3.1226 9.84201 3.16582 9.81471 3.18595L9.60392 3.3414L9.68295 3.59091C9.69318 3.62321 9.65639 3.64993 9.62873 3.63023L9.41553 3.47806L9.20232 3.63023C9.17474 3.64997 9.13791 3.62321 9.1481 3.59091L9.22713 3.3414L9.01635 3.18595C8.98908 3.16582 9.0031 3.1226 9.03705 3.12232L9.29908 3.1203L9.38197 2.87204C9.39279 2.83985 9.43834 2.83985 9.44908 2.87204Z" fill="#F5F5F5"/>
<path d="M9.44908 5.16876L9.53197 5.41702L9.794 5.41905C9.82791 5.41932 9.84201 5.46255 9.81471 5.48271L9.60392 5.63817L9.68295 5.88767C9.69318 5.91998 9.65639 5.9467 9.62873 5.927L9.41553 5.77482L9.20232 5.927C9.17474 5.94674 9.13791 5.91998 9.1481 5.88767L9.22713 5.63817L9.01635 5.48271C8.98908 5.46258 9.0031 5.41932 9.03705 5.41905L9.29908 5.41702L9.38197 5.16876C9.39279 5.13662 9.43834 5.13662 9.44908 5.16876Z" fill="#F5F5F5"/>
<path d="M9.44908 7.27911L9.53197 7.52737L9.794 7.5294C9.82791 7.52967 9.84201 7.5729 9.81471 7.59303L9.60392 7.74848L9.68295 7.99799C9.69318 8.03029 9.65639 8.05701 9.62873 8.03731L9.41553 7.88513L9.20232 8.03731C9.17474 8.05705 9.13791 8.03029 9.1481 7.99799L9.22713 7.74848L9.01635 7.59303C8.98908 7.5729 9.0031 7.52967 9.03705 7.5294L9.29908 7.52737L9.38197 7.27911C9.39279 7.24697 9.43834 7.24697 9.44908 7.27911Z" fill="#F5F5F5"/>
<path d="M9.44908 9.19952L9.53197 9.44778L9.794 9.44981C9.82791 9.45008 9.84201 9.49331 9.81471 9.51344L9.60392 9.66889L9.68295 9.9184C9.69318 9.9507 9.65639 9.97742 9.62873 9.95772L9.41553 9.80554L9.20232 9.95772C9.17474 9.97746 9.13791 9.9507 9.1481 9.9184L9.22713 9.66889L9.01635 9.51344C8.98908 9.49331 9.0031 9.45004 9.03705 9.44981L9.29908 9.44778L9.38197 9.19952C9.39279 9.16738 9.43834 9.16738 9.44908 9.19952Z" fill="#F5F5F5"/>
</svg>
