<svg width="17" height="17" viewBox="0 0 17 17" fill="none" xmlns="http://www.w3.org/2000/svg">
<g clip-path="url(#clip0)">
<path d="M15.8757 11.5822L14.9435 11.1162L10.4478 13.3642C9.91339 13.6314 9.23298 13.7786 8.53182 13.7787C7.83079 13.7787 7.15039 13.6315 6.61602 13.3643L2.11998 11.1162L1.18782 11.5822C0.685753 11.8333 0.397949 12.2231 0.397949 12.6516C0.397949 13.08 0.685883 13.4697 1.18782 13.7207L7.06154 16.6576C7.47386 16.8637 8.00278 16.9668 8.53182 16.9668C9.06087 16.9667 9.58991 16.8637 10.0021 16.6576L15.8757 13.7208C16.3778 13.4697 16.6657 13.0801 16.6657 12.6516C16.6657 12.2231 16.3778 11.8333 15.8757 11.5822Z" fill="#526AE5"/>
<path d="M15.8757 7.39797L14.9435 6.93182L10.4476 9.17991C9.91235 9.44761 9.23194 9.59495 8.53182 9.59495C7.8317 9.59495 7.1513 9.44761 6.61602 9.17991L2.12011 6.93182L1.18782 7.39797C0.685883 7.64893 0.397949 8.03868 0.397949 8.46721C0.397949 8.89561 0.685883 9.28536 1.18782 9.53633L7.06154 12.4733C7.47386 12.6793 8.00278 12.7825 8.53182 12.7825C9.06087 12.7823 9.58991 12.6793 10.0021 12.4733L15.8757 9.53646C16.3778 9.28536 16.6657 8.89574 16.6657 8.46721C16.6657 8.03868 16.3776 7.64893 15.8757 7.39797Z" fill="#526AE5"/>
<path d="M1.18782 5.35194L7.06154 8.28887C7.46115 8.48873 7.98332 8.59885 8.53182 8.59885C9.08032 8.59885 9.6025 8.48873 10.0021 8.28887L15.8756 5.35207C16.3776 5.10097 16.6657 4.71135 16.6657 4.28282C16.6657 3.85429 16.3778 3.46455 15.8757 3.21345L10.0022 0.27678C9.6025 0.0769122 9.08032 -0.0332031 8.53182 -0.0332031C7.98332 -0.0332031 7.46115 0.0769122 7.06154 0.27678L1.18782 3.21345C0.685753 3.46455 0.397949 3.85429 0.397949 4.28282C0.397949 4.71135 0.685883 5.10097 1.18782 5.35194Z" fill="#526AE5"/>
</g>
<defs>
<clipPath id="clip0">
<rect width="17" height="17" fill="white"/>
</clipPath>
</defs>
</svg>
