<svg width="19" height="21" viewBox="0 0 19 21" fill="none" xmlns="http://www.w3.org/2000/svg">
<path d="M16.1986 2.12871H10.3375V1.28789C10.3375 0.824414 9.96425 0.451172 9.50077 0.451172C9.03729 0.451172 8.66405 0.824414 8.66405 1.28789V2.12871H2.80292C1.65038 2.12871 0.711121 3.06797 0.711121 4.22051V18.4529C0.711121 19.6055 1.65038 20.5447 2.80292 20.5447H16.2027C17.3553 20.5447 18.2945 19.6055 18.2945 18.4529V4.22051C18.2945 3.06797 17.3553 2.12871 16.1986 2.12871ZM13.4834 3.80215L12.7 5.82422H6.30155L5.51815 3.80215H13.4834ZM16.617 18.457C16.617 18.6867 16.4283 18.8754 16.1986 18.8754H2.80292C2.57323 18.8754 2.38456 18.6867 2.38456 18.457V4.22461C2.38456 3.99492 2.57323 3.80625 2.80292 3.80625H3.72167L4.94393 6.96855C5.06698 7.29258 5.3787 7.50586 5.72323 7.50586H13.2742C13.6187 7.50586 13.9305 7.29258 14.0535 6.96855L15.2758 3.80625H16.1945C16.4242 3.80625 16.6129 3.99492 16.6129 4.22461V18.457H16.617Z" fill="#526AE5"/>
<path d="M13.4502 11.5992H5.7885C5.32502 11.5992 4.95178 11.226 4.95178 10.7625C4.95178 10.299 5.32502 9.92578 5.7885 9.92578H13.4502C13.9137 9.92578 14.2869 10.299 14.2869 10.7625C14.2869 11.226 13.9096 11.5992 13.4502 11.5992Z" fill="#526AE5"/>
<path d="M13.4502 15.8813H5.7885C5.32502 15.8813 4.95178 15.508 4.95178 15.0445C4.95178 14.5811 5.32502 14.2078 5.7885 14.2078H13.4502C13.9137 14.2078 14.2869 14.5811 14.2869 15.0445C14.2869 15.508 13.9096 15.8813 13.4502 15.8813Z" fill="#526AE5"/>
</svg>
