<svg width="20" height="35" viewBox="0 0 20 35" fill="none" xmlns="http://www.w3.org/2000/svg">
<g clip-path="url(#clip0)">
<path d="M17.6908 28.013C16.4864 26.9732 15.6251 24.21 15.6251 20.9644C15.6251 18.5077 14.0439 16.4249 11.8439 15.6622C11.6958 14.7758 10.9295 14.0986 10.0001 14.0986C9.07077 14.0986 8.30452 14.7758 8.15637 15.6621C5.95637 16.4249 4.37513 18.5077 4.37513 20.9644C4.37513 24.2094 3.51452 26.9719 2.3095 28.013C1.63701 28.5941 1.25012 29.438 1.25012 30.3267C1.25012 31.361 2.08949 32.1992 3.12511 32.1992H8.12511C8.12511 33.2334 8.96448 34.0716 10.0001 34.0716C11.0357 34.0716 11.8751 33.2334 11.8751 32.1992H16.8751C17.9107 32.1992 18.7501 31.361 18.7501 30.3267C18.7501 29.4386 18.3639 28.5941 17.6908 28.013ZM3.12511 30.3267C3.12511 29.9822 3.27512 29.6545 3.53573 29.4292C5.2101 27.9837 6.25009 24.7399 6.25009 20.9644C6.25009 18.899 7.93198 17.2194 10.0001 17.2194C12.0682 17.2194 13.7501 18.899 13.7501 20.9644C13.7501 24.7399 14.7901 27.9837 16.4645 29.4292C16.7258 29.6551 16.8751 29.9822 16.8751 30.3267H3.12511Z" fill="#959CB6"/>
</g>
<ellipse cx="10.5882" cy="2.34977" rx="2.35294" ry="2.34977" fill="#FD27EB"/>
<defs>
<clipPath id="clip0">
<rect width="20" height="19.973" fill="white" transform="translate(0 14.0986)"/>
</clipPath>
</defs>
</svg>
