<svg width="19" height="19" viewBox="0 0 19 19" fill="none" xmlns="http://www.w3.org/2000/svg">
<path d="M17.8348 0.408203H1.16523C0.745898 0.408203 0.408203 0.745898 0.408203 1.16523V17.8348C0.408203 18.2541 0.745898 18.5918 1.16523 18.5918H17.8348C18.2541 18.5918 18.5918 18.2541 18.5918 17.8348V1.16523C18.5918 0.745898 18.2541 0.408203 17.8348 0.408203ZM17.0777 1.92227V6.8875C14.5803 7.1918 12.6469 8.04531 11.1514 9.14746C6.72422 8.74297 3.5959 11.207 1.92227 13.018V1.92227H17.0777ZM1.92227 15.4412C2.47891 14.6174 5.15078 11.0252 9.48516 10.6504C7.33281 13.0143 6.53867 15.8123 6.2752 17.074H1.92227V15.4412ZM7.81152 17.0777C8.28281 14.9217 10.168 9.34785 17.0777 8.41641V17.0777H7.81152Z" fill="#526AE5"/>
<path d="M5.70705 7.91916C7.0133 7.91916 8.07834 6.85412 8.07834 5.54787C8.07834 4.24162 7.01701 3.17657 5.70705 3.17657C4.4008 3.17657 3.33575 4.24162 3.33575 5.54787C3.33947 6.85412 4.4008 7.91916 5.70705 7.91916ZM5.70705 4.69435C6.17834 4.69435 6.56056 5.07658 6.56056 5.54787C6.56056 6.01916 6.17834 6.40138 5.70705 6.40138C5.23576 6.40138 4.85353 6.01916 4.85353 5.54787C4.85353 5.07658 5.23576 4.69435 5.70705 4.69435Z" fill="#526AE5"/>
</svg>
