<svg width="19" height="19" viewBox="0 0 19 19" fill="none" xmlns="http://www.w3.org/2000/svg">
<path d="M13.2578 14.5875C12.9355 14.2652 12.4501 14.2652 12.1278 14.5875C11.8055 14.9098 11.8055 15.3951 12.1278 15.7174L13.6228 17.2124C14.1431 17.6628 14.5935 17.3755 14.7527 17.2124C15.075 16.8901 15.075 16.4047 14.7527 16.0824L13.2578 14.5875Z" fill="#526AE5"/>
<path d="M15.7608 12.1218C15.4385 11.7996 14.9532 11.7996 14.6309 12.1218C14.3086 12.4441 14.3086 12.9295 14.6309 13.2518L16.1258 14.7467C16.6189 15.2088 17.0965 14.9098 17.2557 14.7467C17.578 14.4245 17.578 13.9391 17.2557 13.6168L15.7608 12.1218Z" fill="#526AE5"/>
<path d="M18.8729 9.29501C16.4577 5.0121 12.0039 5.69939 11.6001 5.78093L8.61023 2.79105C5.1971 -0.556068 1.09669 0.00307916 0.735576 0.0846214C0.370577 0.123451 0.0910035 0.406908 0.0482909 0.771906C-0.235166 3.68025 0.735575 6.50705 2.79355 8.5689L5.78343 11.5588C5.3796 13.8226 6.10572 16.1252 7.72103 17.7405C8.16369 18.1831 8.69177 18.5481 9.2548 18.8704C10.2061 19.3791 10.7575 18.2647 10.3032 17.6978C9.13055 15.5971 9.53437 12.9295 11.2312 11.2326C12.2796 10.1842 13.6542 9.6173 15.1103 9.6173C16.0811 9.6173 17.0091 9.90076 17.8167 10.3434C18.2206 10.6657 19.3117 10.2541 18.8729 9.29501ZM10.1479 10.1027C8.65294 11.5976 7.96566 13.6168 8.08603 15.5971C7.35991 14.3856 7.11529 12.9295 7.44146 11.4772C7.523 11.2365 7.44146 10.953 7.23954 10.7511L3.92737 7.43896C2.35089 5.86247 1.5044 3.76179 1.58595 1.58345C3.807 1.54462 5.90768 2.35227 7.44146 3.88604L10.7536 7.19821C10.9167 7.40013 11.1963 7.48167 11.4797 7.40013C11.8836 7.27976 13.6736 6.87981 15.5996 8.0447C13.5455 7.89715 11.4797 8.77081 10.1479 10.1027Z" fill="#526AE5"/>
<path d="M7.41771 8.20389C7.87449 8.20389 8.24478 7.83359 8.24478 7.37681C8.24478 6.92004 7.87449 6.54974 7.41771 6.54974C6.96093 6.54974 6.59064 6.92004 6.59064 7.37681C6.59064 7.83359 6.96093 8.20389 7.41771 8.20389Z" fill="#526AE5"/>
<path d="M4.55284 5.33439C5.00961 5.33439 5.3799 4.96409 5.3799 4.50731C5.3799 4.05053 5.00961 3.68024 4.55284 3.68024C4.09606 3.68024 3.72577 4.05053 3.72577 4.50731C3.72577 4.96409 4.09606 5.33439 4.55284 5.33439Z" fill="#526AE5"/>
</svg>
