<svg width="21" height="21" viewBox="0 0 21 21" fill="none" xmlns="http://www.w3.org/2000/svg">
<path d="M14.9357 0.900452H2.51578C1.12867 0.900452 0 2.02912 0 3.41623C0 4.80333 1.12867 5.932 2.51578 5.932V4.3431C2.00468 4.3431 1.5889 3.92732 1.5889 3.41623C1.5889 2.90513 2.00468 2.48936 2.51578 2.48936H14.1412V5.13753H15.7301V1.69492C15.7301 1.2561 15.3745 0.900452 14.9357 0.900452Z" fill="#526AE5"/>
<path d="M20.2055 4.34307H2.51578C2.00468 4.34307 1.5889 3.92729 1.5889 3.4162C1.5889 2.97741 1.23326 2.62177 0.794473 2.62177C0.355688 2.62177 0 2.97737 0 3.4162V17.5839C0 18.971 1.12867 20.0997 2.51578 20.0997H20.2055C20.6443 20.0997 21 19.744 21 19.3052V5.1375C21 4.69871 20.6444 4.34307 20.2055 4.34307ZM19.4111 18.5108H2.51578C2.00468 18.5108 1.5889 18.095 1.5889 17.5839V5.75507C1.87569 5.86922 2.18872 5.93197 2.51578 5.93197H19.4111V18.5108Z" fill="#526AE5"/>
<path d="M16.657 13.6645C15.9558 13.6645 15.3856 13.0944 15.3856 12.3934C15.3856 11.6924 15.956 11.1223 16.657 11.1223H20.179V9.53339H16.657C15.0797 9.53339 13.7967 10.8164 13.7967 12.3934C13.7967 13.9704 15.0797 15.2534 16.657 15.2534H20.2055V13.6645H16.657Z" fill="#526AE5"/>
</svg>
