<svg width="12" height="12" viewBox="0 0 12 12" fill="none" xmlns="http://www.w3.org/2000/svg">
<path d="M6 0C2.68352 0 0 2.68376 0 6C0 9.31648 2.68376 12 6 12C9.31648 12 12 9.31624 12 6C12 2.68352 9.31624 0 6 0ZM6 11.0625C3.20173 11.0625 0.9375 8.79809 0.9375 6C0.9375 3.20173 3.20191 0.9375 6 0.9375C8.79827 0.9375 11.0625 3.20191 11.0625 6C11.0625 8.79827 8.79809 11.0625 6 11.0625Z" fill="#526AE5"/>
<path d="M6 3.02058C5.74111 3.02058 5.53125 3.23044 5.53125 3.48933V6.50791C5.53125 6.7668 5.74111 6.97666 6 6.97666C6.25889 6.97666 6.46875 6.7668 6.46875 6.50791V3.48933C6.46875 3.23044 6.25889 3.02058 6 3.02058Z" fill="#526AE5"/>
<path d="M6 8.81621C6.34949 8.81621 6.63281 8.53289 6.63281 8.1834C6.63281 7.8339 6.34949 7.55058 6 7.55058C5.65051 7.55058 5.36719 7.8339 5.36719 8.1834C5.36719 8.53289 5.65051 8.81621 6 8.81621Z" fill="#526AE5"/>
</svg>
